<svg width="147" height="40" viewBox="0 0 147 40" fill="none" xmlns="http://www.w3.org/2000/svg">
<g clip-path="url(#clip0_2139_254)">
<path d="M33.3335 16.25C31.2543 16.25 29.4231 17.7375 28.3335 20C29.4231 22.2625 31.2543 23.75 33.3335 23.75C35.4127 23.75 37.2439 22.2625 38.3335 20C37.2439 17.7375 35.4127 16.25 33.3335 16.25ZM33.3335 22.5C31.9522 22.5 30.8335 21.3812 30.8335 20C30.8335 18.6187 31.9522 17.5 33.3335 17.5C34.7147 17.5 35.8335 18.6187 35.8335 20C35.8335 21.3812 34.7147 22.5 33.3335 22.5Z" fill="#050505"/>
<path fill-rule="evenodd" clip-rule="evenodd" d="M26.6667 0H13.3333L0 13.3333V26.667L14.5833 26.6667L26.6667 14.5833L26.6667 0ZM6.66667 23.7503C4.5875 23.7503 2.75625 22.2628 1.66667 20.0003C2.75625 17.7378 4.5875 16.2503 6.66667 16.2503C8.74583 16.2503 10.5771 17.7378 11.6667 20.0003C10.5771 22.2628 8.74583 23.7503 6.66667 23.7503Z" fill="#050505"/>
<path d="M26.6668 13.3336L25.4168 14.5836H27.1856H27.7085H38.7502V26.1482L26.1481 38.7503H14.5835V28.1253V27.1857V25.417L13.3335 26.667V40.0003H26.6668L40.0002 26.667V13.3336H26.6668Z" fill="#050505"/>
<path d="M26.9541 25.4949L13.5161 38.9329L14.4 39.8168L27.838 26.3788L26.9541 25.4949Z" fill="#050505"/>
<path d="M38.8281 13.6208L38.4985 13.9503L39.3824 14.8342L39.7119 14.5047L38.8281 13.6208Z" fill="#050505"/>
<path d="M38.8171 13.6684L38.5195 13.966L39.4034 14.8499L39.701 14.5523L38.8171 13.6684Z" fill="#050505"/>
<path d="M6.6665 22.5C8.04722 22.5 9.1665 21.3807 9.1665 20C9.1665 18.6193 8.04722 17.5 6.6665 17.5C5.28579 17.5 4.1665 18.6193 4.1665 20C4.1665 21.3807 5.28579 22.5 6.6665 22.5Z" fill="#050505"/>
<path d="M38.7498 14.5836V25.417H27.9165V14.5836H38.7498ZM39.9998 13.3336H26.6665V26.667H39.9998V13.3336Z" fill="#050505"/>
<path d="M57.7083 19.4165H51.875V14.8332H50V19.4165V21.0832V25.6665H51.875V21.0832H57.7083V25.6665H59.5833V21.0832V19.4165V14.8332H57.7083V19.4165Z" fill="#050505"/>
<path d="M126.25 17.125C123.541 17.125 122.083 19.0833 122.083 21.5C122.083 23.9167 123.541 25.875 126.25 25.875C128.958 25.875 130.416 23.9167 130.416 21.5C130.416 19.0833 128.958 17.125 126.25 17.125ZM126.25 24.2083C123.993 24.2083 123.958 22.3146 123.958 21.5C123.958 20.6854 123.993 18.7917 126.25 18.7917C128.506 18.7917 128.541 20.6854 128.541 21.5C128.541 22.3146 128.506 24.2083 126.25 24.2083Z" fill="#050505"/>
<path d="M135.625 17.125C132.917 17.125 131.458 19.0833 131.458 21.5C131.458 23.9167 132.917 25.875 135.625 25.875C138.333 25.875 139.792 23.9167 139.792 21.5C139.792 19.0833 138.333 17.125 135.625 17.125ZM135.625 24.2083C133.369 24.2083 133.333 22.3146 133.333 21.5C133.333 20.6854 133.369 18.7917 135.625 18.7917C137.881 18.7917 137.917 20.6854 137.917 21.5C137.917 22.3146 137.881 24.2083 135.625 24.2083Z" fill="#050505"/>
<path d="M74.1667 18.7917C75.8167 18.7917 76.2792 19.8042 76.4083 20.6667H78.2708C77.9688 18.65 76.5542 17.125 74.1667 17.125C71.4583 17.125 70 19.0833 70 21.5C70 23.9167 71.4583 25.875 74.1667 25.875C76.4708 25.875 77.8667 24.4542 78.2333 22.5417H76.3708C76.1979 23.35 75.6854 24.2083 74.1667 24.2083C71.9104 24.2083 71.875 22.3146 71.875 21.5C71.875 20.6854 71.9104 18.7917 74.1667 18.7917Z" fill="#050505"/>
<path d="M87.7082 17.5417H85.1019L81.6665 21.1V14H79.7915V25.6667H81.6665V23.7979L83.1498 22.2625L85.4457 25.6667H87.7082L84.4811 20.8833L87.7082 17.5417Z" fill="#050505"/>
<path d="M91.8747 17.125C89.1663 17.125 87.708 19.0833 87.708 21.5C87.708 23.9167 89.1663 25.875 91.8747 25.875C94.1788 25.875 95.5747 24.4542 95.9413 22.5417H94.0788C93.9059 23.35 93.3934 24.2083 91.8747 24.2083C90.0893 24.2083 89.6955 23.0229 89.608 22.125H96.0038C96.0268 21.9208 96.0413 21.7125 96.0413 21.5C96.0413 19.0833 94.583 17.125 91.8747 17.125ZM89.633 20.6667C89.7622 19.8042 90.2247 18.7917 91.8747 18.7917C93.5247 18.7917 93.9872 19.8042 94.1163 20.6667H89.6351H89.633Z" fill="#050505"/>
<path d="M112.083 14.8332H106.458V25.6665H108.333V21.7082H112.083C113.921 21.7082 115.417 20.1665 115.417 18.2707C115.417 16.3749 113.921 14.8332 112.083 14.8332ZM112.083 20.0415H108.333V16.4999H112.083C113.029 16.4999 113.8 17.2936 113.8 18.2707C113.8 19.2478 113.029 20.0415 112.083 20.0415Z" fill="#050505"/>
<path d="M118.333 19.2082V18.7915L117.917 17.5415H116.458V25.6665H118.333V21.0832C118.333 20.2499 119.375 19.2082 120.821 19.2082H121.458V17.3332H120.821C119.375 17.3332 118.333 18.3749 118.333 19.2082Z" fill="#050505"/>
<path d="M101.646 17.3332C100.54 17.3332 99.5543 17.8436 98.9085 18.6415L98.5418 17.5415H97.0835V25.6665H98.9585V21.0665C98.9585 19.8103 99.9772 18.7915 101.233 18.7915C102.048 18.7915 102.708 19.4519 102.708 20.2644V25.6665H104.583V20.2499C104.573 18.6374 103.263 17.3332 101.646 17.3332Z" fill="#050505"/>
<path d="M145.1 15.4583H146.458V14H144.506C143.052 14 141.875 15.1771 141.875 16.6312V17.3333H140.625V18.7917H141.875V25.6667H143.75V18.7917H146.25V17.3333H143.75V16.8083C143.75 16.0625 144.354 15.4583 145.1 15.4583Z" fill="#050505"/>
<path d="M68.4998 23.8481V19.9876C68.4998 18.171 67.2436 16.9168 64.9686 16.9168C62.6936 16.9168 61.1978 18.171 61.0228 19.9731H62.9165C63.0269 19.0876 63.8228 18.4772 64.9373 18.4772C66.0519 18.4772 66.6561 19.0231 66.6707 19.8606C66.654 20.5356 65.7165 20.5835 64.4436 20.7293C62.8061 20.9231 60.8478 21.3397 60.8332 23.3356C60.8165 24.9272 62.0894 25.8772 64.0311 25.8772C65.4623 25.8772 66.3852 25.3314 66.879 24.4127C66.8957 24.5085 66.9269 24.621 66.9582 24.7022C67.1019 25.346 67.6269 25.7002 68.4853 25.7002H69.3769V24.221H68.9165C68.6311 24.221 68.504 24.0918 68.504 23.8501L68.4998 23.8481ZM66.6707 22.5397C66.6707 23.6793 65.6998 24.4189 64.4123 24.4189C63.3144 24.4189 62.7269 23.9856 62.7269 23.246C62.7269 22.346 63.6019 22.2022 64.6519 22.0731C65.5436 21.9606 66.354 21.8481 66.6728 21.3501V22.5377L66.6707 22.5397Z" fill="#050505"/>
</g>
<defs>
<clipPath id="clip0_2139_254">
<rect width="146.458" height="40" fill="white"/>
</clipPath>
</defs>
</svg>
