<svg width="100" height="99" viewBox="0 0 100 99" fill="none" xmlns="http://www.w3.org/2000/svg">
<path d="M99.937 58.5237L93.8861 29.3274C94.4309 31.9666 91.7292 35.1461 88.6568 37.6692C88.4603 37.8478 88.2504 38.022 88.0227 38.2051L85.5711 40.1432C75.9208 47.7348 60.6215 59.1132 56.3033 61.48C56.0175 61.6452 55.7317 61.8015 55.4414 61.9444C55.3789 61.9757 55.3164 62.0025 55.2538 62.0337C55.0261 62.1454 54.8028 62.2525 54.5751 62.3553C54.517 62.382 54.459 62.3999 54.4054 62.4267C54.1732 62.5249 53.9365 62.6232 53.7043 62.708C53.6641 62.7214 53.6194 62.7348 53.5792 62.7527C53.3292 62.842 53.0791 62.9269 52.829 62.9983C52.8022 63.0072 52.7754 63.0117 52.7486 63.0206C52.4807 63.0965 52.2172 63.1635 51.9537 63.2216C51.9403 63.2216 51.9269 63.2261 51.918 63.2305C51.6411 63.293 51.3598 63.3422 51.0874 63.3823C51.0874 63.3823 51.0829 63.3823 51.0785 63.3823C50.5069 63.4627 49.9397 63.4985 49.3815 63.4895V98.2411C52.8201 98.1518 56.1738 97.1917 59.13 95.4501C63.5733 93.0029 75.3983 83.5983 89.2552 72.4476L94.6899 68.0802C98.3026 65.1954 100.035 62.3329 99.9951 59.3142C100.008 59.0462 99.9951 58.7783 99.9504 58.5148L99.937 58.5237Z" fill="#4D22C7"/>
<path d="M6.14094 29.399C6.14094 29.399 6.14094 29.3944 6.14094 29.3899L6.13184 29.4445C6.13184 29.4445 6.14094 29.4127 6.14549 29.399H6.14094Z" fill="#2C0E83"/>
<path d="M43.603 61.5245C43.603 61.5245 10.6689 37.2583 10.008 36.767C6.68107 34.1814 5.77008 31.837 6.01569 29.9927L0.085324 58.9925C0.022805 59.3141 -0.00398879 59.64 0.000476846 59.966C0.107652 64.0789 3.63997 66.9592 4.44825 67.5621L40.151 94.9945C42.8215 96.9906 46.0769 98.049 49.4128 98.0088V63.4984C47.372 63.476 45.4071 62.8464 43.603 61.529V61.5245Z" fill="#2C0E83"/>
<path d="M92.0775 26.8667C92.015 26.8221 91.9569 26.773 91.8989 26.7238C90.778 25.7816 68.6463 10.6877 55.553 1.77432C53.8248 0.586459 51.7617 -0.0342651 49.6539 0.00145997C47.5506 0.0371851 45.5098 0.729359 43.8173 1.97527L42.2142 3.17653C39.4365 5.24859 34.2787 9.08903 28.0536 13.4877C20.9175 18.5383 14.3575 22.9325 8.51646 26.4157C6.03803 27.8938 3.74269 31.8906 10.0035 36.7626C10.6644 37.2538 43.5985 61.5201 43.5985 61.5201C47.3809 64.2843 51.8555 64.0387 56.2943 61.4799C60.6171 59.1086 75.9164 47.7347 85.5621 40.1431L88.0138 38.205C88.2415 38.0219 88.4514 37.8433 88.6479 37.6691C92.7697 34.2842 96.2261 29.7158 92.0686 26.8623L92.0775 26.8667Z" fill="#7549FF"/>
</svg>
